<?xml version="1.0" encoding="utf-8"?>
<!-- Generator: Adobe Illustrator 25.2.1, SVG Export Plug-In . SVG Version: 6.00 Build 0)  -->
<svg version="1.1" id="Layer_1" xmlns="http://www.w3.org/2000/svg" xmlns:xlink="http://www.w3.org/1999/xlink" x="0px" y="0px"
	 viewBox="0 0 400 400" style="enable-background:new 0 0 400 400;" xml:space="preserve">
<style type="text/css">
	.st0{fill:#FFFFFF;}
	.st1{fill:#80001F;}
	.st2{font-family:'BarlowCondensed-Bold';}
	.st3{font-size:58.3732px;}
	.st4{font-size:39.5253px;}
</style>
<g id="DlEQuP.tif">
	<g>
		<path class="st0" d="M208.62,69.16c9.35,6.64,16.42,15.37,21.17,25.87c8.82,19.5,9.71,39.17,0.53,58.98
			c0.31-0.17,0.57-0.3,0.81-0.45c2.3-1.43,4.64-2.8,6.89-4.3c8.86-5.88,16.76-12.77,22.77-21.66c5.36-7.93,8.56-16.62,9.24-26.19
			c0.59-8.2-0.66-16.17-3.28-23.92c-5.12-15.18-13.7-28.18-25.06-39.39c-0.64-0.63-1.37-1.18-2.21-1.9c0.07,0.3,0.08,0.37,0.11,0.44
			c1.49,3.57,2.2,7.31,2.26,11.16c0.06,3.82-0.57,7.5-2.42,10.9c-0.73,1.34-1.64,2.56-2.9,3.62c-0.18-0.64-0.33-1.15-0.48-1.67
			c-3.22-11.47-8.01-22.19-15.23-31.73c-5.26-6.95-11.51-12.81-19.1-17.17c-1.79-1.03-3.69-1.85-5.66-2.82c0,0.38-0.02,0.52,0,0.65
			c0.8,5.65,0.38,11.25-0.79,16.8c-1.73,8.24-5.02,15.87-9.03,23.22c-4.63,8.49-10.23,16.34-16.22,23.92
			c-0.48,0.61-0.98,1.19-1.47,1.79c-0.07-0.01-0.13-0.02-0.2-0.03c-0.29-8.27-1.42-16.33-5.77-23.66c-0.04,0.14-0.08,0.21-0.08,0.28
			c-0.43,4.9-1.7,9.61-3.71,14.07c-2.37,5.25-4.89,10.44-7.43,15.61c-4.01,8.15-6.83,16.61-7.14,25.78
			c-0.24,7.14,1.2,13.88,4.76,20.13c3.2,5.61,7.56,10.22,12.46,14.36c5.51,4.65,11.57,8.48,17.81,12.06
			c0.05,0.03,0.13,0.02,0.29,0.05c-0.15-0.34-0.28-0.6-0.38-0.87c-1.18-3.25-2.56-6.45-3.5-9.76c-1.75-6.14-1.82-12.36,0.09-18.51
			c1.43-4.63,3.85-8.76,6.55-12.74c4.64-6.85,8.07-14.26,10.11-22.3c0.14-0.53,0.26-1.07,0.45-1.81c4.18,6.64,5.09,13.65,3.99,21.08
			C206.2,97.34,209.7,83.94,208.62,69.16z"/>
		<path class="st1" d="M208.62,69.16c1.09,14.78-2.42,28.18-11.78,39.87c1.11-7.43,0.19-14.45-3.99-21.08
			c-0.18,0.74-0.31,1.27-0.45,1.81c-2.03,8.04-5.46,15.44-10.11,22.3c-2.7,3.98-5.12,8.11-6.55,12.74
			c-1.91,6.16-1.84,12.37-0.09,18.51c0.94,3.32,2.32,6.51,3.5,9.76c0.1,0.27,0.23,0.53,0.38,0.87c-0.16-0.02-0.24-0.02-0.29-0.05
			c-6.24-3.58-12.3-7.4-17.81-12.06c-4.9-4.14-9.26-8.74-12.46-14.36c-3.56-6.24-5-12.98-4.76-20.13
			c0.31-9.17,3.13-17.63,7.14-25.78c2.54-5.17,5.06-10.36,7.43-15.61c2.01-4.46,3.28-9.17,3.71-14.07c0.01-0.07,0.04-0.14,0.08-0.28
			c4.35,7.33,5.48,15.39,5.77,23.66c0.07,0.01,0.13,0.02,0.2,0.03c0.49-0.6,1-1.18,1.47-1.79c5.99-7.58,11.58-15.42,16.22-23.92
			c4.01-7.35,7.3-14.99,9.03-23.22c1.17-5.56,1.59-11.15,0.79-16.8c-0.02-0.13,0-0.27,0-0.65c1.96,0.97,3.87,1.79,5.66,2.82
			c7.58,4.36,13.83,10.22,19.1,17.17c7.23,9.54,12.02,20.26,15.23,31.73c0.14,0.52,0.29,1.03,0.48,1.67
			c1.26-1.06,2.17-2.28,2.9-3.62c1.85-3.4,2.48-7.08,2.42-10.9c-0.06-3.85-0.77-7.59-2.26-11.16c-0.03-0.07-0.04-0.14-0.11-0.44
			c0.84,0.72,1.56,1.27,2.21,1.9c11.36,11.22,19.94,24.22,25.06,39.39c2.61,7.75,3.86,15.72,3.28,23.92
			c-0.69,9.57-3.89,18.26-9.24,26.19c-6,8.89-13.9,15.78-22.77,21.66c-2.26,1.5-4.59,2.87-6.89,4.3c-0.24,0.15-0.5,0.28-0.81,0.45
			c9.19-19.81,8.29-39.48-0.53-58.98C225.03,84.52,217.96,75.79,208.62,69.16z"/>
	</g>
</g>
<g>
	<path d="M101.78,264.32c-13.21-5.15-23.09-13.82-27.35-27.82c-8.19-26.88,12.51-53.73,40.91-52.74c4.8,0.17,7.15-0.99,9.67-5.22
		c18.49-31.02,46.33-46.52,82.17-46.54c35.86-0.03,63.58,15.56,82.27,46.46c1.91,3.15,3.12,5.65,8,5.43
		c21.78-0.95,38.28,11.51,43.14,31.77c4.64,19.34-5.04,37.87-24.56,47.04c-1.15,0.54-2.28,1.14-3.78,1.9
		c7.97,16.38,11.11,33.22,6.79,50.96c-6.02,24.74-21.05,43.08-42.53,55.51c-44.85,25.96-90.99,26.58-136.21,1.66
		C97.63,349.23,85.04,311.67,101.78,264.32z M207.28,189.29c-11.61-28.16-36.05-32.68-55.49-11.3
		c-16.59,18.25-19.36,40.31-15.4,63.69c0.73,4.29,0.93,7.45-2.64,11.12c-28.37,29.19-25.86,68.56,5.66,94.35
		c36.72,30.05,98.44,30.12,135.36,0.17c31.61-25.64,34.09-64.9,6.31-94.61c-2.16-2.31-2.94-6.66-2.98-10.08
		c-0.12-9.59,1.56-19.31,0.55-28.76c-1.82-17.14-8.77-32.16-23.16-42.7c-16.69-12.23-37.86-6.38-46.11,12.57
		C208.8,185.09,208.34,186.49,207.28,189.29z M114.04,204.3c-8.2-0.32-14.64,2.92-18.36,10.39c-4.03,8.1-3.51,16.25,2.11,23.45
		c4.62,5.93,10.91,8.2,18.19,6.63C115.33,231.23,114.71,218.17,114.04,204.3z M298.41,244.82c8.26,1.49,14.69-1.4,19.32-8.16
		c4.79-7,4.66-17.5-0.33-24.25c-4.38-5.94-10.17-9.03-17.08-7.82C299.67,218.19,299.06,231.04,298.41,244.82z"/>
	<path class="st0" d="M114.04,204.3c0.66,13.87,1.29,26.93,1.93,40.47c-7.27,1.57-13.56-0.7-18.19-6.63
		c-5.61-7.2-6.14-15.35-2.11-23.45C99.4,207.23,105.84,203.98,114.04,204.3z"/>
	<path class="st0" d="M298.41,244.82c0.65-13.78,1.27-26.63,1.91-40.23c6.92-1.21,12.7,1.88,17.08,7.82
		c4.98,6.75,5.12,17.25,0.33,24.25C313.1,243.42,306.67,246.31,298.41,244.82z"/>
</g>
<text transform="matrix(1 0 0 1 173.0925 244.9902)" class="st2 st3">UW</text>
<text transform="matrix(1 0 0 1 159.0608 295.083)"><tspan x="0" y="0" class="st2 st4">Marmo </tspan><tspan x="20.45" y="47.43" class="st2 st4">Fire</tspan></text>
</svg>
